# xmcd
#
# Track frame offsets:
#	150
#	27073
#	49068
#	79028
#	110913
#
# Disc length: 1892 seconds
#
# Revision: 1
# Processed by: cddbd v1.5.2PL0 Copyright (c) Steve Scherf et al.
# Submitted via: audiograbber 1.83.01
#
DISCID=37076205
DTITLE=SPECIAL OTHERS - UNCLE JOHN
DYEAR=2005
DGENRE=Instrumental
TTITLE0=Sunshine
TTITLE1=random
TTITLE2=Uncle John
TTITLE3=MEAL
TTITLE4=Mellotron
EXTD=
EXTT0=
EXTT1=
EXTT2=
EXTT3=
EXTT4=
PLAYORDER=
